<svg width="258" height="388" viewBox="0 0 258 388" fill="none" xmlns="http://www.w3.org/2000/svg">
  <defs>
    <linearGradient id="bg" x1="24" y1="20" x2="230" y2="364" gradientUnits="userSpaceOnUse">
      <stop stop-color="#DBEAFE"/>
      <stop offset="0.52" stop-color="#BFDBFE"/>
      <stop offset="1" stop-color="#93C5FD"/>
    </linearGradient>
    <linearGradient id="shape" x1="40" y1="130" x2="222" y2="272" gradientUnits="userSpaceOnUse">
      <stop stop-color="#1D4ED8"/>
      <stop offset="1" stop-color="#2563EB"/>
    </linearGradient>
  </defs>

  <rect width="258" height="388" rx="20" fill="url(#bg)"/>

  <circle cx="208" cy="58" r="44" fill="#EFF6FF" fill-opacity="0.9"/>
  <circle cx="50" cy="332" r="56" fill="#EFF6FF" fill-opacity="0.8"/>

  <rect x="40" y="108" width="178" height="178" rx="20" fill="url(#shape)"/>
  <path d="M88 157C88 149.268 94.268 143 102 143H156C163.732 143 170 149.268 170 157V237C170 244.732 163.732 251 156 251H102C94.268 251 88 244.732 88 237V157Z" fill="#EFF6FF"/>
  <path d="M129 143V251" stroke="#93C5FD" stroke-width="6"/>
  <path d="M105 176H121" stroke="#60A5FA" stroke-width="5" stroke-linecap="round"/>
  <path d="M137 176H153" stroke="#60A5FA" stroke-width="5" stroke-linecap="round"/>
  <path d="M105 198H121" stroke="#60A5FA" stroke-width="5" stroke-linecap="round"/>
  <path d="M137 198H153" stroke="#60A5FA" stroke-width="5" stroke-linecap="round"/>

  <rect x="48" y="304" width="162" height="12" rx="6" fill="#1E3A8A" fill-opacity="0.25"/>
  <rect x="64" y="326" width="130" height="10" rx="5" fill="#1E3A8A" fill-opacity="0.18"/>

  <text x="129" y="46" text-anchor="middle" fill="#1E3A8A" font-size="16" font-family="Arial, sans-serif" font-weight="700">BOOKY</text>
  <text x="129" y="365" text-anchor="middle" fill="#1E3A8A" font-size="18" font-family="Arial, sans-serif" font-weight="700">Book Cover</text>
</svg>
